<?xml version="1.0" encoding="UTF-8" standalone="no"?>
<!DOCTYPE svg PUBLIC "-//W3C//DTD SVG 1.1//EN"
 "http://www.w3.org/Graphics/SVG/1.1/DTD/svg11.dtd">
<!-- Generated by graphviz version 15.1.0 (20260618.0150)
 -->
<!-- Title: G Pages: 1 -->
<svg width="650pt" height="212pt"
 viewBox="0.00 0.00 650.00 212.00" xmlns="http://www.w3.org/2000/svg" xmlns:xlink="http://www.w3.org/1999/xlink">
<g id="graph0" class="graph" transform="scale(1 1) rotate(0) translate(18 193.84)">
<title>G</title>
<polygon fill="white" stroke="none" points="-18,18 -18,-193.84 631.75,-193.84 631.75,18 -18,18"/>
<!-- cds/export -->
<g id="node1" class="node">
<title>cds/export</title>
<path fill="#e5f1ff" stroke="#4c78a8" d="M66.25,-127C66.25,-127 12,-127 12,-127 6,-127 0,-121 0,-115 0,-115 0,-103 0,-103 0,-97 6,-91 12,-91 12,-91 66.25,-91 66.25,-91 72.25,-91 78.25,-97 78.25,-103 78.25,-103 78.25,-115 78.25,-115 78.25,-121 72.25,-127 66.25,-127"/>
<text xml:space="preserve" text-anchor="middle" x="39.12" y="-103.2" font-family="Helvetica,sans-Serif" font-size="14.00">cds/export</text>
</g>
<!-- cds/storage -->
<g id="node2" class="node">
<title>cds/storage</title>
<path fill="#e5f1ff" stroke="#4c78a8" d="M432,-137C432,-137 370.25,-137 370.25,-137 364.25,-137 358.25,-131 358.25,-125 358.25,-125 358.25,-113 358.25,-113 358.25,-107 364.25,-101 370.25,-101 370.25,-101 432,-101 432,-101 438,-101 444,-107 444,-113 444,-113 444,-125 444,-125 444,-131 438,-137 432,-137"/>
<text xml:space="preserve" text-anchor="middle" x="401.12" y="-113.2" font-family="Helvetica,sans-Serif" font-size="14.00">cds/storage</text>
</g>
<!-- cds/export&#45;&gt;cds/storage -->
<g id="edge1" class="edge">
<title>cds/export&#45;&gt;cds/storage</title>
<path fill="none" stroke="#8a9bae" stroke-width="1.1" d="M78.46,-111.2C84.41,-111.5 90.5,-111.78 96.25,-112 185.21,-115.4 288.89,-117.36 349.25,-118.3"/>
<polygon fill="#8a9bae" stroke="#8a9bae" stroke-width="1.1" points="349.13,-120.75 356.17,-118.41 349.21,-115.85 349.13,-120.75"/>
<text xml:space="preserve" text-anchor="middle" x="202.12" y="-118.88" font-family="Helvetica,sans-Serif" font-size="10.00">1</text>
</g>
<!-- cds/storage/walkerstores -->
<g id="node3" class="node">
<title>cds/storage/walkerstores</title>
<path fill="#e5f1ff" stroke="#4c78a8" d="M272.75,-93C272.75,-93 131.5,-93 131.5,-93 125.5,-93 119.5,-87 119.5,-81 119.5,-81 119.5,-69 119.5,-69 119.5,-63 125.5,-57 131.5,-57 131.5,-57 272.75,-57 272.75,-57 278.75,-57 284.75,-63 284.75,-69 284.75,-69 284.75,-81 284.75,-81 284.75,-87 278.75,-93 272.75,-93"/>
<text xml:space="preserve" text-anchor="middle" x="202.12" y="-69.2" font-family="Helvetica,sans-Serif" font-size="14.00">cds/storage/walkerstores</text>
</g>
<!-- cds/export&#45;&gt;cds/storage/walkerstores -->
<g id="edge2" class="edge">
<title>cds/export&#45;&gt;cds/storage/walkerstores</title>
<path fill="none" stroke="#8a9bae" stroke-width="1.1" d="M78.69,-100.86C88.57,-98.77 99.62,-96.44 110.93,-94.05"/>
<polygon fill="#8a9bae" stroke="#8a9bae" stroke-width="1.1" points="111.23,-96.49 117.57,-92.65 110.21,-91.69 111.23,-96.49"/>
<text xml:space="preserve" text-anchor="middle" x="98.88" y="-98.78" font-family="Helvetica,sans-Serif" font-size="10.00">1</text>
</g>
<!-- walker/datanode/client -->
<g id="node4" class="node">
<title>walker/datanode/client</title>
<path fill="#e5f1ff" stroke="#4c78a8" d="M464.25,-36C464.25,-36 338,-36 338,-36 332,-36 326,-30 326,-24 326,-24 326,-12 326,-12 326,-6 332,0 338,0 338,0 464.25,0 464.25,0 470.25,0 476.25,-6 476.25,-12 476.25,-12 476.25,-24 476.25,-24 476.25,-30 470.25,-36 464.25,-36"/>
<text xml:space="preserve" text-anchor="middle" x="401.12" y="-12.2" font-family="Helvetica,sans-Serif" font-size="14.00">walker/datanode/client</text>
</g>
<!-- cds/export&#45;&gt;walker/datanode/client -->
<g id="edge3" class="edge">
<title>cds/export&#45;&gt;walker/datanode/client</title>
<path fill="none" stroke="#8a9bae" stroke-width="1.1" d="M53.94,-90.74C68.22,-73.42 92.24,-48.36 119.5,-36.75 182.02,-10.13 259.49,-6.91 317.18,-9.52"/>
<polygon fill="#8a9bae" stroke="#8a9bae" stroke-width="1.1" points="316.77,-11.95 323.88,-9.86 317.01,-7.05 316.77,-11.95"/>
<text xml:space="preserve" text-anchor="middle" x="202.12" y="-38.5" font-family="Helvetica,sans-Serif" font-size="10.00">1</text>
</g>
<!-- walker/wkeys -->
<g id="node5" class="node">
<title>walker/wkeys</title>
<path fill="#e5f1ff" stroke="#4c78a8" d="M601.75,-113C601.75,-113 529.5,-113 529.5,-113 523.5,-113 517.5,-107 517.5,-101 517.5,-101 517.5,-89 517.5,-89 517.5,-83 523.5,-77 529.5,-77 529.5,-77 601.75,-77 601.75,-77 607.75,-77 613.75,-83 613.75,-89 613.75,-89 613.75,-101 613.75,-101 613.75,-107 607.75,-113 601.75,-113"/>
<text xml:space="preserve" text-anchor="middle" x="565.62" y="-89.2" font-family="Helvetica,sans-Serif" font-size="14.00">walker/wkeys</text>
</g>
<!-- cds/export&#45;&gt;walker/wkeys -->
<g id="edge4" class="edge">
<title>cds/export&#45;&gt;walker/wkeys</title>
<path fill="none" stroke="#8a9bae" stroke-width="1.1" d="M78.45,-122.15C91.34,-126.02 105.9,-129.8 119.5,-132 276.15,-157.3 322.98,-187.05 476.25,-146 496.73,-140.52 517.37,-129.01 533.55,-118.32"/>
<polygon fill="#8a9bae" stroke="#8a9bae" stroke-width="1.1" points="534.87,-120.39 539.28,-114.42 532.11,-116.33 534.87,-120.39"/>
<text xml:space="preserve" text-anchor="middle" x="305.38" y="-166.34" font-family="Helvetica,sans-Serif" font-size="10.00">1</text>
</g>
<!-- cds/storage&#45;&gt;walker/wkeys -->
<g id="edge5" class="edge">
<title>cds/storage&#45;&gt;walker/wkeys</title>
<path fill="none" stroke="#8a9bae" stroke-width="1.1" d="M444.4,-112.76C463.98,-109.86 487.53,-106.39 508.58,-103.28"/>
<polygon fill="#8a9bae" stroke="#8a9bae" stroke-width="1.1" points="508.91,-105.71 515.47,-102.26 508.19,-100.86 508.91,-105.71"/>
<text xml:space="preserve" text-anchor="middle" x="496.88" y="-106.6" font-family="Helvetica,sans-Serif" font-size="10.00">1</text>
</g>
<!-- cds/storage/walkerstores&#45;&gt;cds/storage -->
<g id="edge6" class="edge">
<title>cds/storage/walkerstores&#45;&gt;cds/storage</title>
<path fill="none" stroke="#8a9bae" stroke-width="1.1" d="M285.24,-93.34C307.04,-98.21 329.94,-103.32 349.5,-107.69"/>
<polygon fill="#8a9bae" stroke="#8a9bae" stroke-width="1.1" points="348.97,-110.08 356.33,-109.22 350.03,-105.3 348.97,-110.08"/>
<text xml:space="preserve" text-anchor="middle" x="305.38" y="-100.07" font-family="Helvetica,sans-Serif" font-size="10.00">1</text>
</g>
<!-- cds/storage/walkerstores&#45;&gt;walker/datanode/client -->
<g id="edge7" class="edge">
<title>cds/storage/walkerstores&#45;&gt;walker/datanode/client</title>
<path fill="none" stroke="#8a9bae" stroke-width="1.1" d="M266.81,-56.57C286.38,-50.91 308.04,-44.64 328.12,-38.83"/>
<polygon fill="#8a9bae" stroke="#8a9bae" stroke-width="1.1" points="328.68,-41.22 334.72,-36.92 327.31,-36.52 328.68,-41.22"/>
<text xml:space="preserve" text-anchor="middle" x="305.38" y="-46.54" font-family="Helvetica,sans-Serif" font-size="10.00">1</text>
</g>
<!-- cds/storage/walkerstores&#45;&gt;walker/wkeys -->
<g id="edge8" class="edge">
<title>cds/storage/walkerstores&#45;&gt;walker/wkeys</title>
<path fill="none" stroke="#8a9bae" stroke-width="1.1" d="M285.16,-73.76C339.48,-73.67 412.25,-74.94 476.25,-80.75 486.75,-81.7 497.9,-83.15 508.61,-84.77"/>
<polygon fill="#8a9bae" stroke="#8a9bae" stroke-width="1.1" points="508.14,-87.17 515.43,-85.83 508.9,-82.33 508.14,-87.17"/>
<text xml:space="preserve" text-anchor="middle" x="401.12" y="-82.5" font-family="Helvetica,sans-Serif" font-size="10.00">1</text>
</g>
<!-- walker/datanode/client&#45;&gt;walker/wkeys -->
<g id="edge9" class="edge">
<title>walker/datanode/client&#45;&gt;walker/wkeys</title>
<path fill="none" stroke="#8a9bae" stroke-width="1.1" d="M475,-36.44C483.43,-39.47 491.77,-42.9 499.5,-46.75 512.75,-53.35 526.1,-62.67 537.24,-71.36"/>
<polygon fill="#8a9bae" stroke="#8a9bae" stroke-width="1.1" points="535.57,-73.17 542.56,-75.62 538.63,-69.34 535.57,-73.17"/>
<text xml:space="preserve" text-anchor="middle" x="496.88" y="-48.5" font-family="Helvetica,sans-Serif" font-size="10.00">1</text>
</g>
</g>
</svg>
